<?xml version="1.0" standalone="no"?>
<!DOCTYPE svg PUBLIC "-//W3C//DTD SVG 20010904//EN"
 "http://www.w3.org/TR/2001/REC-SVG-20010904/DTD/svg10.dtd">
<svg version="1.0" xmlns="http://www.w3.org/2000/svg"
 width="311.000000pt" height="162.000000pt" viewBox="0 0 311.000000 162.000000"
 preserveAspectRatio="xMidYMid meet">
<metadata>
Created by potrace 1.16, written by Peter Selinger 2001-2019
</metadata>
<g transform="translate(0.000000,162.000000) scale(0.100000,-0.100000)"
fill="#adda" stroke="none">
<path d="M3077 1230 c-75 -146 -210 -296 -324 -360 -39 -22 -61 -40 -58 -48 3
-9 -1 -11 -14 -7 -10 3 -52 -6 -93 -19 -246 -83 -641 -73 -1148 30 -19 3 -22
2 -10 -6 12 -8 11 -10 -8 -10 -13 0 -32 5 -42 10 -11 6 -49 11 -85 12 -51 2
-63 5 -51 13 12 9 6 11 -27 8 -23 -1 -60 -7 -82 -12 l-40 -9 35 -2 c19 -1 55
-4 80 -5 25 -2 85 -8 133 -14 48 -7 92 -9 98 -5 6 3 27 3 47 -1 31 -6 34 -9
17 -15 -14 -6 -9 -8 20 -7 22 0 112 -11 200 -26 462 -75 755 -55 1025 69 97
45 158 84 250 160 116 96 111 86 108 200 l-3 99 -28 -55z"/>
<path d="M255 1022 c-38 -3 -45 -6 -30 -12 15 -6 7 -9 -28 -9 -27 -1 -46 -4
-44 -8 3 -5 -11 -9 -31 -10 -20 -1 -38 -7 -40 -12 -2 -6 -14 -11 -26 -11 -23
0 -56 -28 -56 -47 0 -12 58 -23 62 -13 5 13 109 61 118 55 6 -4 10 -1 10 5 0
6 3 9 8 6 4 -2 34 2 67 9 33 8 69 12 82 9 12 -3 29 -2 38 4 14 7 11 11 -18 25
-19 10 -41 16 -49 15 -7 -1 -35 -4 -63 -6z"/>
<path d="M585 1000 c10 -11 38 -22 64 -25 98 -13 366 -67 381 -76 11 -7 5 -9
-20 -5 -155 23 -419 34 -389 15 7 -4 17 -6 21 -3 4 3 18 -2 31 -11 18 -11 64
-16 192 -20 93 -3 171 -8 174 -10 2 -3 -45 -5 -105 -6 -60 0 -127 -3 -149 -8
l-40 -7 60 -12 c72 -14 223 -3 330 24 78 20 85 15 -85 58 -58 15 -139 36 -180
47 -95 24 -203 46 -258 52 -42 5 -43 5 -27 -13z"/>
<path d="M3026 928 c5 -8 -11 -12 -31 -8 -5 1 -5 -4 1 -10 9 -9 17 -9 32 -1
31 16 41 13 12 -4 -14 -8 -33 -14 -42 -15 -10 0 -18 -4 -18 -8 0 -10 -65 -42
-85 -42 -19 0 -19 -10 1 -24 13 -10 13 -12 -5 -12 -11 0 -17 4 -14 9 3 5 0 7
-8 5 -8 -3 -13 -11 -11 -18 2 -8 -4 -11 -15 -8 -10 3 -24 -1 -31 -9 -7 -7 -19
-11 -25 -7 -7 3 -1 -4 12 -15 l24 -21 34 20 c19 11 31 16 28 10 -3 -6 1 -7 9
-4 9 3 13 11 9 17 -4 6 0 8 11 4 11 -5 15 -3 10 5 -5 7 0 9 13 6 23 -6 56 9
48 22 -3 4 3 6 13 3 11 -2 26 3 36 12 9 9 16 14 16 10 0 -3 14 2 30 12 30 17
39 33 20 33 -5 0 -7 6 -4 14 3 8 -3 19 -14 25 -22 11 -63 11 -56 -1z"/>
<path d="M475 913 c-170 -22 -326 -73 -424 -140 -55 -38 -65 -59 -28 -66 l22
-4 -22 -2 c-27 -1 -31 -21 -5 -22 14 0 15 -1 1 -7 -10 -5 -16 -23 -18 -56 l-3
-49 52 44 c148 127 349 223 507 244 29 4 55 11 58 16 6 9 -76 50 -97 48 -7 -1
-26 -4 -43 -6z"/>
<path d="M580 825 c-140 -28 -295 -90 -394 -156 -70 -47 -186 -157 -186 -176
0 -27 33 -11 103 50 93 80 157 120 267 168 84 36 233 79 329 94 44 7 44 8 20
21 -29 16 -55 16 -139 -1z"/>
</g>
</svg>
