<?xml version="1.0" standalone="no"?>
<!DOCTYPE svg PUBLIC "-//W3C//DTD SVG 20010904//EN"
 "http://www.w3.org/TR/2001/REC-SVG-20010904/DTD/svg10.dtd">
<svg version="1.0" xmlns="http://www.w3.org/2000/svg"
 width="1280.000000pt" height="640.000000pt" viewBox="0 0 1280.000000 640.000000"
 preserveAspectRatio="xMidYMid meet">
<metadata>
Created by potrace 1.15, written by Peter Selinger 2001-2017
</metadata>
<g transform="translate(0.000000,640.000000) scale(0.100000,-0.100000)"
fill="#ffff" stroke="none">
<path d="M10425 6133 c-737 -61 -1322 -454 -1648 -1109 -191 -383 -258 -642
-258 -999 -1 -579 264 -1132 719 -1504 l64 -52 66 36 c104 58 253 161 358 247
l96 80 -25 26 -26 26 57 52 57 51 -71 75 c-153 161 -257 364 -305 593 -20 94
-17 305 5 404 47 206 252 403 487 467 96 26 246 24 333 -4 105 -35 195 -100
271 -197 16 -19 16 -19 9 5 -26 97 -131 245 -222 315 -29 21 -50 40 -49 42 2
1 34 -9 73 -22 106 -39 195 -107 256 -195 17 -24 17 -24 3 18 -74 221 -278
393 -528 448 -93 21 -279 21 -373 0 -193 -42 -380 -140 -530 -278 -24 -22 -44
-38 -44 -34 0 16 67 138 118 214 63 95 217 262 302 327 88 68 256 127 442 156
98 15 367 6 463 -15 258 -58 465 -167 644 -341 162 -157 270 -327 334 -526 52
-159 62 -225 62 -414 0 -312 -57 -487 -233 -720 l-76 -100 54 45 c30 25 50 38
45 30 -27 -47 -93 -138 -123 -172 -65 -72 -14 -38 76 51 153 151 244 287 350
526 105 235 144 373 162 577 21 226 -21 483 -111 696 l-20 47 56 -55 c210
-204 387 -530 476 -874 19 -70 20 -98 15 -213 -13 -293 -78 -559 -187 -773
-274 -535 -796 -965 -1414 -1163 -308 -99 -534 -134 -915 -145 l-255 -6 95
-13 c141 -19 553 -27 700 -14 117 10 331 42 375 56 17 5 17 5 4 -4 -23 -15
-287 -88 -402 -111 -181 -36 -339 -52 -585 -57 -133 -3 -241 -7 -240 -8 11
-11 354 -35 502 -35 438 0 811 74 1181 235 377 164 741 440 963 730 21 28 21
26 -4 -25 -109 -226 -293 -472 -529 -705 -146 -145 -156 -153 -290 -227 -503
-275 -1040 -409 -1700 -425 -597 -14 -1100 57 -2300 321 -1646 363 -3501 871
-4884 1340 -123 42 -226 74 -228 72 -2 -2 9 -8 24 -14 15 -5 136 -48 268 -95
1215 -433 2733 -905 3885 -1206 85 -22 216 -56 290 -76 272 -72 1031 -258
1187 -291 46 -9 81 -19 79 -22 -15 -14 -1412 302 -2146 487 -871 219 -1976
531 -2720 767 -113 36 -275 88 -360 114 -85 27 -236 76 -334 110 -99 33 -181
58 -183 56 -6 -5 737 -266 1142 -401 1323 -440 2556 -797 3895 -1126 795 -196
1213 -282 1615 -334 196 -25 450 -45 600 -46 161 -1 154 -8 -40 -38 -174 -27
-360 -48 -593 -66 -185 -14 -199 -14 -335 5 -1061 151 -3303 667 -4896 1126
-123 35 -226 63 -227 61 -9 -8 1125 -372 1658 -532 427 -128 1335 -385 1541
-436 26 -6 46 -13 44 -15 -4 -4 -544 117 -918 206 -668 159 -1623 408 -2163
566 -103 30 -190 53 -192 51 -4 -4 -9 -3 411 -140 958 -315 2048 -636 2865
-847 216 -55 227 -61 105 -55 -55 3 -192 7 -305 10 -1775 48 -4126 259 -5857
525 -216 34 -279 38 -128 9 1032 -197 2499 -415 3730 -553 243 -28 220 -33
-47 -11 -561 47 -695 58 -1033 91 -797 76 -1603 172 -2380 285 -577 84 -573
78 18 -26 2398 -423 4618 -664 7042 -765 132 -5 402 -10 600 -10 865 0 1415
77 2040 285 609 202 1076 486 1511 920 316 314 506 594 685 1005 142 329 203
522 253 805 100 573 26 1111 -222 1613 -119 240 -229 391 -426 588 -382 381
-815 593 -1315 644 -96 9 -272 11 -366 3z m-6102 -5460 c-7 -2 -19 -2 -25 0
-7 3 -2 5 12 5 14 0 19 -2 13 -5z"/>
<path d="M208 1283 c7 -3 16 -2 19 1 4 3 -2 6 -13 5 -11 0 -14 -3 -6 -6z"/>
<path d="M138 1133 c7 -3 16 -2 19 1 4 3 -2 6 -13 5 -11 0 -14 -3 -6 -6z"/>
</g>
</svg>
