<?xml version="1.0" standalone="no"?>
<!DOCTYPE svg PUBLIC "-//W3C//DTD SVG 20010904//EN"
 "http://www.w3.org/TR/2001/REC-SVG-20010904/DTD/svg10.dtd">
<svg version="1.0" xmlns="http://www.w3.org/2000/svg"
 width="300.000000pt" height="168.000000pt" viewBox="0 0 300.000000 168.000000"
 preserveAspectRatio="xMidYMid meet">
<metadata>
Created by potrace 1.16, written by Peter Selinger 2001-2019
</metadata>
<g transform="translate(0.000000,168.000000) scale(0.100000,-0.100000)"
fill="#5494e3" stroke="none">
<path d="M503 559 c-58 -11 -163 -70 -163 -91 0 -9 -8 -19 -17 -23 -19 -6 -73
-50 -73 -60 0 -3 19 4 43 16 l42 21 -25 -24 c-14 -14 -27 -25 -30 -25 -3 0
-10 -1 -16 -2 -15 -1 -82 -61 -68 -61 5 0 20 9 32 20 12 12 22 18 22 15 0 -3
9 -1 20 5 13 7 20 7 20 1 0 -6 -11 -13 -25 -17 -14 -3 -25 -11 -25 -17 0 -6
-3 -8 -6 -4 -7 6 -44 -24 -44 -36 0 -5 8 -6 18 -3 12 4 11 1 -6 -13 -24 -21
-29 -36 -9 -28 8 3 14 -1 14 -8 0 -7 -6 -11 -14 -8 -8 3 -13 -2 -13 -12 0 -12
5 -15 18 -10 12 4 10 0 -6 -15 -19 -18 -23 -31 -21 -71 2 -27 0 -52 -4 -55 -4
-4 -7 -18 -7 -30 l0 -24 683 3 c375 1 691 6 702 10 16 7 17 7 5 -2 -11 -7 62
-10 257 -10 248 0 272 1 276 17 4 15 5 15 6 -1 1 -16 11 -18 89 -16 110 2 127
6 111 25 -7 8 -19 14 -28 13 -35 -3 -49 2 -76 27 l-28 25 6 -28 c4 -15 4 -22
1 -15 -3 6 -10 10 -15 6 -5 -3 -9 1 -9 8 0 27 20 42 55 44 56 2 67 22 17 30
-23 4 -39 11 -36 16 3 5 -10 7 -30 5 -20 -3 -39 0 -42 5 -4 6 -10 5 -15 -3 -7
-11 -9 -10 -9 4 0 9 -4 17 -9 17 -5 0 -12 -8 -14 -17 -4 -14 -5 -12 -6 5 -1
26 -18 30 -24 5 -3 -11 -5 -5 -6 12 -2 29 -2 29 -18 10 -12 -16 -14 -16 -10
-3 10 30 -11 30 -27 1 -8 -15 -15 -24 -16 -20 0 5 5 17 10 28 15 27 1 47 -17
24 -9 -14 -13 -15 -13 -4 0 8 -7 23 -15 33 -13 17 -17 17 -32 5 -15 -12 -16
-12 -10 4 11 28 -20 20 -35 -10 -7 -14 -19 -29 -27 -31 -10 -3 -7 5 7 26 32
44 26 71 -7 40 -11 -11 -12 -9 -6 9 9 33 -5 28 -49 -17 -33 -33 -36 -41 -22
-46 10 -4 25 1 36 11 12 11 20 13 20 6 0 -6 -7 -14 -15 -17 -21 -8 -19 -24 3
-24 24 -1 51 -23 48 -41 -3 -24 -38 -69 -52 -69 -8 0 -14 -4 -14 -10 0 -5 -4
-10 -9 -10 -13 0 9 40 37 68 25 25 29 44 7 36 -8 -4 -21 -2 -28 4 -8 7 -20 4
-39 -13 -17 -15 -24 -26 -17 -31 6 -3 21 4 33 15 20 19 24 20 29 7 4 -10 1
-16 -9 -16 -8 0 -17 -6 -20 -14 -3 -8 -14 -16 -24 -19 -13 -3 -17 0 -13 9 5
12 -8 19 -29 15 -5 0 -8 2 -8 7 0 15 16 28 35 27 11 0 20 7 21 15 1 27 -8 32
-26 15 -21 -19 -47 -11 -31 9 8 9 3 12 -19 12 -30 -1 -65 -23 -36 -23 8 0 13
5 9 10 -3 5 6 1 21 -8 14 -10 26 -20 26 -23 0 -3 -3 -2 -7 1 -3 4 -12 2 -20
-4 -10 -9 -18 -8 -31 5 -10 9 -24 16 -30 16 -6 0 -13 4 -16 9 -3 5 2 8 11 7
11 -1 18 7 19 20 1 20 -2 21 -27 12 -16 -6 -26 -15 -22 -21 3 -6 1 -7 -5 -3
-6 4 -25 0 -41 -9 -17 -8 -34 -15 -38 -15 -4 1 18 15 51 31 41 21 55 34 48 41
-7 7 -20 7 -43 -1 -44 -15 -57 -14 -33 4 14 11 15 14 4 15 -13 0 -13 1 0 11
12 8 9 9 -12 5 -14 -3 -33 -9 -42 -12 -9 -3 -16 -2 -16 4 0 5 12 13 27 17 20
5 23 9 13 15 -13 8 -47 7 -100 -3 -14 -2 -19 -2 -12 0 6 3 12 8 12 13 0 4 8 6
18 4 9 -3 26 2 37 11 19 16 19 16 -8 10 -17 -3 -26 -2 -23 4 3 5 -3 7 -14 4
-28 -7 -59 5 -41 16 9 6 10 11 2 15 -6 4 -11 3 -11 -1 0 -5 -28 -9 -62 -9
l-63 -1 45 12 45 12 -38 8 c-21 4 -77 5 -125 2 l-87 -5 73 10 c40 5 71 12 69
14 -2 2 -64 9 -138 14 -157 12 -187 16 -214 25 l-20 8 20 -16 c11 -9 25 -17
31 -17 11 0 28 -29 22 -36 -2 -1 -22 10 -45 26 l-41 28 -16 -41 c-22 -60 -56
-168 -56 -181 0 -6 -14 -35 -31 -65 -20 -35 -34 -50 -39 -42 -11 19 -16 18
-41 -4 l-24 -20 19 22 c10 13 22 20 27 17 11 -7 27 27 24 53 -1 12 2 20 6 18
13 -8 18 22 6 36 -10 11 -9 11 4 1 9 -6 20 -8 25 -4 4 4 2 -1 -5 -11 -12 -15
-12 -20 -1 -30 10 -9 11 -9 6 1 -4 6 -4 18 1 25 4 6 9 20 10 31 3 16 1 17 -14
5 -16 -13 -17 -12 -4 3 7 10 17 15 22 13 4 -3 17 25 28 62 28 93 33 125 18
120 -7 -2 -11 -15 -9 -28 2 -19 0 -21 -8 -9 -5 8 -7 23 -4 33 3 10 0 25 -7 33
-10 12 -16 12 -48 -7 l-36 -21 19 21 c16 18 17 24 6 34 -7 6 -10 7 -7 2 3 -6
-13 -21 -36 -33 -37 -20 -25 -4 13 18 25 14 2 24 -27 11 -23 -11 -25 -10 -13
3 16 21 0 21 -55 1 -53 -19 -57 -18 -15 5 38 21 36 22 -27 9z"/>
<path d="M113 462 c-7 -4 -17 -39 -22 -77 -13 -85 -31 -146 -42 -140 -4 3 -10
-9 -14 -26 -8 -36 -14 -33 -25 13 -5 22 -8 -12 -9 -99 l-1 -133 34 0 c32 0 35
3 40 38 4 20 8 80 11 132 2 52 11 122 19 155 16 67 30 145 24 145 -1 0 -8 -4
-15 -8z"/>
<path d="M2613 159 c-13 -5 -23 -13 -23 -19 0 -5 -6 -10 -12 -10 -7 0 -40 -18
-72 -40 -33 -21 -72 -42 -88 -45 -15 -4 -28 -11 -28 -16 0 -6 -8 -8 -19 -4
-12 3 -21 0 -25 -10 -5 -13 33 -15 324 -15 l330 0 0 34 0 34 -77 7 c-43 4 -84
12 -90 17 -7 6 -19 8 -28 5 -8 -4 -29 0 -47 7 -18 7 -40 12 -48 11 -8 0 -21 5
-28 12 -7 7 -20 13 -27 13 -7 0 -15 6 -17 14 -2 10 -9 11 -25 5z"/>
</g>
</svg>
