<?xml version="1.0" encoding="iso-8859-1"?>
<!-- Generator: Adobe Illustrator 16.0.0, SVG Export Plug-In . SVG Version: 6.00 Build 0)  -->
<!DOCTYPE svg PUBLIC "-//W3C//DTD SVG 1.1//EN" "http://www.w3.org/Graphics/SVG/1.1/DTD/svg11.dtd">
<svg version="1.1" id="Capa_1" xmlns="http://www.w3.org/2000/svg" xmlns:xlink="http://www.w3.org/1999/xlink" x="0px" y="0px"
	 width="70.074px" height="70.074px" viewBox="0 0 70.074 70.074" style="enable-background:new 0 0 70.074 70.074;"
	 xml:space="preserve">
<g>
	<path d="M67.684,20.163v-4.168h-4.423v-5.26l-28.335,5.26H23.823V5.027h-9.334v10.967H2.392v4.168H0v44.884h70.074V20.163H67.684z
		 M4.728,20.163v-1.833h9.762v1.833v17.839H6.753l12.408,12.405l12.401-12.405h-7.736V20.163v-1.833h10.043v1.833v40.796H4.728
		V20.163z M47.729,15.995l13.196-2.451v2.451v1.168v1.168v1.833v35.969l-24.72,4.59V20.163v-1.833v-0.196l5.235-0.972L47.729,15.995
		z M65.348,20.163v40.796H47.729l15.532-2.883V20.166v-1.831h2.087V20.163z M39.554,50.156l-0.611-2.254l18.477-5.023l0.611,2.259
		L39.554,50.156z M39.342,56.456l-0.611-2.254l18.477-5.022l0.611,2.254L39.342,56.456z M39.809,26.158l-0.629-2.25l13.431-3.747
		l4.585-1.277l0.355,1.277l0.27,0.972L39.809,26.158z M39.809,32.121l-0.629-2.249l18.016-5.022l0.63,2.249L39.809,32.121z
		 M39.772,38.08l-0.63-2.249l18.053-5.023l0.627,2.25L39.772,38.08z M39.772,44.04l-0.63-2.249l18.053-5.021l0.627,2.249
		L39.772,44.04z"/>
</g>
<g>
</g>
<g>
</g>
<g>
</g>
<g>
</g>
<g>
</g>
<g>
</g>
<g>
</g>
<g>
</g>
<g>
</g>
<g>
</g>
<g>
</g>
<g>
</g>
<g>
</g>
<g>
</g>
<g>
</g>
</svg>
